<svg width="20" height="20" viewBox="0 0 20 20" fill="none" xmlns="http://www.w3.org/2000/svg">
<path d="M0.0909249 8.79893C0.53173 4.28783 4.37876 0.452255 8.88985 0C8.55782 2.08381 7.01214 3.82985 7.14953 6.02243C6.91482 9.57749 9.73711 13.041 13.3208 13.3787C15.3359 13.7966 17.2251 12.8864 19.0913 12.2853C19.9959 12.8749 19.286 13.8195 18.9768 14.5408C16.956 18.5997 11.9927 20.861 7.60179 19.6931C2.85598 18.5882 -0.613218 13.6478 0.0909249 8.79893ZM1.45914 9.45727C1.03551 14.3348 5.52943 18.8916 10.4126 18.5539C13.2807 18.5195 15.708 16.7506 17.4483 14.6095C13.9334 15.4167 9.92603 14.5351 7.66476 11.5697C5.36914 8.93632 5.28899 5.16372 6.39387 1.99221C3.73759 3.57796 1.56218 6.25142 1.45914 9.45727Z" fill="#696E78"/>
</svg>
