<svg width="20" height="20" viewBox="0 0 20 20" fill="none" xmlns="http://www.w3.org/2000/svg">
<g clip-path="url(#clip0_2_971)">
<path d="M9.202 0H10.746C12.832 0.14 14.992 0.488 16.794 1.616C17.682 2.168 18.464 3.09 18.398 4.196C18.392 8.126 18.42 12.058 18.384 15.99C18.112 15.996 17.842 16 17.57 16.004C17.588 15.256 17.62 14.508 17.602 13.76C16.076 15.12 14.014 15.636 12.034 15.882C9.57 16.144 7.016 15.98 4.678 15.114C3.838 14.814 3.074 14.338 2.396 13.762C2.418 14.488 2.338 15.22 2.458 15.942C2.712 16.75 3.48 17.248 4.19 17.63C6.142 18.596 8.362 18.814 10.512 18.802C10.73 19.05 10.936 19.308 11.13 19.576C8.568 19.67 5.886 19.438 3.59 18.208C2.564 17.65 1.532 16.694 1.602 15.426C1.6 11.678 1.598 7.928 1.602 4.18C1.536 2.97 2.468 2.016 3.452 1.466C5.196 0.466 7.226 0.142 9.202 0ZM8.088 0.908C6.258 1.156 4.278 1.564 2.906 2.892C2.206 3.504 2.288 4.626 2.994 5.198C4.476 6.524 6.536 6.912 8.45 7.128C11.028 7.322 13.756 7.112 16.074 5.882C16.864 5.446 17.804 4.668 17.548 3.652C17.176 2.6 16.076 2.072 15.118 1.66C12.888 0.822 10.444 0.664 8.088 0.908ZM2.396 5.752C2.434 6.618 2.332 7.49 2.452 8.35C2.758 9.246 3.64 9.762 4.448 10.15C6.662 11.118 9.146 11.32 11.534 11.128C13.24 10.954 14.992 10.6 16.45 9.65C17.002 9.276 17.572 8.738 17.588 8.026C17.626 7.268 17.584 6.508 17.604 5.75C16.78 6.506 15.76 7.006 14.696 7.33C12.144 8.106 9.402 8.176 6.786 7.704C5.206 7.392 3.604 6.858 2.396 5.752ZM2.396 9.752C2.456 10.662 2.282 11.602 2.502 12.494C3.124 13.734 4.55 14.248 5.792 14.64C8.186 15.31 10.74 15.358 13.174 14.892C14.416 14.638 15.668 14.244 16.694 13.474C17.148 13.12 17.586 12.624 17.59 12.014C17.626 11.26 17.584 10.506 17.604 9.75C16.782 10.504 15.764 11.004 14.702 11.328C12.206 12.088 9.526 12.172 6.964 11.736C5.322 11.432 3.652 10.896 2.396 9.752Z" fill="#4C51B9"/>
<path d="M12.056 16.848C12.868 16.572 13.764 17.344 13.584 18.19C13.502 19.082 12.328 19.5 11.654 18.954C10.902 18.414 11.132 17.054 12.056 16.848ZM12.234 17.616C11.76 17.832 12.074 18.592 12.572 18.382C13.03 18.164 12.728 17.404 12.234 17.616Z" fill="#4C51B9"/>
<path d="M15.256 16.848C16.068 16.572 16.966 17.346 16.784 18.192C16.7 19.074 15.546 19.494 14.87 18.966C14.102 18.434 14.324 17.056 15.256 16.848ZM15.422 17.616C15.18 17.742 15.114 18.116 15.32 18.3C15.542 18.526 16.056 18.36 15.99 18.004C16.04 17.686 15.688 17.53 15.422 17.616Z" fill="#4C51B9"/>
<path d="M18.174 16.966C18.862 16.546 19.784 16.958 20 17.716V18.216C19.852 18.962 19.012 19.416 18.316 19.102C17.436 18.782 17.356 17.404 18.174 16.966ZM18.638 17.614C18.164 17.82 18.46 18.582 18.956 18.382C19.44 18.2 19.134 17.396 18.638 17.614Z" fill="#4C51B9"/>
</g>
<defs>
<clipPath id="clip0_2_971">
<rect width="20" height="20" fill="white"/>
</clipPath>
</defs>
</svg>
