<svg width="26" height="27" viewBox="0 0 26 27" fill="none" xmlns="http://www.w3.org/2000/svg">
<path opacity="0.76" d="M11.0133 1.21331C13.32 -0.440026 15.7866 1.65331 17.6666 2.93331C20.1466 4.87997 23.04 6.57331 24.7466 9.29331C25.2 13.6133 25.16 18 24.84 22.32C24.8133 24.32 22.92 26.1733 20.9333 26.1866C15.6266 26.4 10.2933 26.4266 4.98665 26.1733C3.01331 26.1333 1.14665 24.2533 1.14665 22.28C0.879979 17.9866 0.746646 13.64 1.30665 9.35997C3.62665 5.79997 7.57331 3.58664 11.0133 1.21331ZM3.66665 9.49331C3.61331 14.2133 3.63998 18.9333 3.69331 23.6533C9.89331 23.7466 16.1066 23.7466 22.3066 23.6533C22.36 18.9333 22.3733 14.2133 22.3333 9.50664C19.3066 7.09331 16.16 4.82664 13 2.59997C9.85331 4.85331 6.73331 7.13331 3.66665 9.49331Z" fill="#6A6F7B"/>
</svg>
