<svg width="100%" height="100%" viewBox="0 0 27 27" version="1.1" xmlns="http://www.w3.org/2000/svg" xmlnsXlink="http://www.w3.org/1999/xlink" xmlSpace="preserve" xmlnsSerif="http://www.serif.com/" style="fill-rule:evenodd;clip-rule:evenodd;">
    <g transform="matrix(1,0,0,1,-65.1052,-492.492)">
        <g>
            <g transform="matrix(1,0,0,1,78.6052,505.992)">
                <g transform="matrix(1,0,0,1,-13.5,-13.5)">
                    <clipPath id="_clip1">
                        <rect x="0" y="0" width="27" height="27"/>
                    </clipPath>
                    <g clip-path="url(#_clip1)">
                        <path d="M26.5,5C26.5,2.516 24.484,0.5 22,0.5L5,0.5C2.516,0.5 0.5,2.516 0.5,5L0.5,22C0.5,24.484 2.516,26.5 5,26.5L22,26.5C24.484,26.5 26.5,24.484 26.5,22L26.5,5Z" style="fill:none;stroke:rgb(239,238,241);stroke-width:1px;"/>
                    </g>
                </g>
            </g>
            <g transform="matrix(1,0,0,1,78.6052,505.992)">
                <g transform="matrix(1,0,0,1,-8,-1)">
                    <path d="M0.308,0.25C5.325,0.083 10.35,0.167 15.367,0.192C15.358,0.6 15.35,1.408 15.342,1.817C10.533,1.75 5.708,2.042 0.917,1.7C0.758,1.342 0.458,0.617 0.308,0.25Z" style="fill:rgb(114,114,114);fill-opacity:0.97;fill-rule:nonzero;"/>
                </g>
            </g>
        </g>
    </g>
</svg>
