<svg width="100%" height="100%" viewBox="0 0 17 19" version="1.1" xmlns="http://www.w3.org/2000/svg" xmlnsXlink="http://www.w3.org/1999/xlink" xmlSpace="preserve" xmlnsSerif="http://www.serif.com/" style="fill-rule:evenodd;clip-rule:evenodd;stroke-linejoin:round;stroke-miterlimit:2;">
    <g transform="matrix(1,0,0,1,-178.163,-537.067)">
        <g>
            <g transform="matrix(1,0,0,1,192.881,539.729)">
                <g transform="matrix(1,0,0,1,-2,-1.5)">
                    <path d="M1.23,0.174C1.728,-0.168 2.226,0.33 2.574,0.654C2.975,1.02 3.463,1.664 2.952,2.155C2.244,2.781 1.506,1.856 1.081,1.339C0.734,1.015 0.816,0.407 1.23,0.174Z" style="fill:rgb(75,80,186);fill-rule:nonzero;"/>
                </g>
            </g>
            <g transform="matrix(1,0,0,1,186.663,546.567)">
                <g transform="matrix(1,0,0,1,-2.5,-4.5)">
                    <path d="M1.787,0.642C1.956,-0.038 3.07,-0.028 3.216,0.662C3.351,1.805 3.216,2.955 3.285,4.102C3.609,4.519 4.072,4.91 4.028,5.495C4.072,6.075 3.614,6.466 3.305,6.893C3.254,7.504 3.394,8.567 2.5,8.572C1.606,8.567 1.744,7.504 1.695,6.893C1.388,6.471 0.926,6.085 0.972,5.508C0.921,4.917 1.391,4.521 1.718,4.102C1.784,2.95 1.649,1.792 1.787,0.642Z" style="fill:rgb(75,80,186);fill-rule:nonzero;"/>
                </g>
            </g>
            <g transform="matrix(1,0,0,1,186.663,546.567)">
                <g transform="matrix(1,0,0,1,-8.5,-9.5)">
                    <path d="M6.933,2.197C7.031,1.658 6.801,0.804 7.485,0.592C8.201,0.492 8.96,0.439 9.663,0.651C10.184,0.975 9.967,1.686 10.067,2.197C11.942,2.611 13.711,3.585 14.943,5.077C17,7.454 17.511,11.019 16.215,13.881C14.746,17.374 10.736,19.536 7.01,18.795C3.011,18.149 -0.138,14.292 0.077,10.237C0.115,6.373 3.161,2.907 6.933,2.197ZM7.071,3.751C3.864,4.362 1.406,7.507 1.61,10.771C1.659,14.267 4.754,17.354 8.25,17.387C11.562,17.584 14.741,15.039 15.277,11.765C15.73,9.455 14.889,6.945 13.128,5.381C11.523,3.907 9.2,3.296 7.071,3.751Z" style="fill:rgb(75,80,186);fill-rule:nonzero;"/>
                </g>
            </g>
        </g>
    </g>
</svg>
