<svg width="18" height="18" viewBox="0 0 18 18" fill="none" xmlns="http://www.w3.org/2000/svg">
<path d="M8.9625 0.5875C8.94531 0.590625 8.92812 0.595313 8.9125 0.6C8.72656 0.642188 8.59531 0.809376 8.6 1V3.4C8.59844 3.54375 8.67344 3.67813 8.79844 3.75156C8.92344 3.82344 9.07656 3.82344 9.20156 3.75156C9.32656 3.67813 9.40156 3.54375 9.4 3.4V1C9.40469 0.884376 9.35781 0.773438 9.275 0.695313C9.19062 0.615625 9.07656 0.576563 8.9625 0.5875ZM3.2625 2.9375C3.1125 2.96406 2.99219 3.07344 2.95 3.21875C2.90781 3.36563 2.95156 3.52188 3.0625 3.625L4.7625 5.325C4.85937 5.44375 5.01406 5.49844 5.16406 5.46406C5.3125 5.42969 5.42969 5.3125 5.46406 5.16406C5.49844 5.01406 5.44375 4.85938 5.325 4.7625L3.625 3.0625C3.54219 2.97344 3.42187 2.92813 3.3 2.9375C3.2875 2.9375 3.275 2.9375 3.2625 2.9375ZM14.6125 2.9375C14.5219 2.95 14.4375 2.99531 14.375 3.0625L12.675 4.7625C12.5562 4.85938 12.5016 5.01406 12.5359 5.16406C12.5703 5.3125 12.6875 5.42969 12.8359 5.46406C12.9859 5.49844 13.1406 5.44375 13.2375 5.325L14.9375 3.625C15.0625 3.50625 15.0984 3.32031 15.025 3.16406C14.95 3.00625 14.7844 2.91563 14.6125 2.9375ZM8.9625 5C8.95 5.00313 8.9375 5.00781 8.925 5.0125C8.9 5.01406 8.875 5.01875 8.85 5.025C8.84531 5.02969 8.84219 5.03281 8.8375 5.0375C6.71562 5.12813 5 6.85625 5 9C5 11.2016 6.79844 13 9 13C11.2016 13 13 11.2016 13 9C13 6.86406 11.2984 5.14219 9.1875 5.0375C9.17344 5.0375 9.16406 5.025 9.15 5.025C9.10937 5.00938 9.06719 5.00156 9.025 5C9.01719 5 9.00781 5 9 5C8.9875 5 8.975 5 8.9625 5ZM8.975 5.8C8.98281 5.8 8.99219 5.8 9 5.8C9.0125 5.8 9.025 5.8 9.0375 5.8C10.7875 5.82031 12.2 7.24531 12.2 9C12.2 10.7688 10.7687 12.2 9 12.2C7.23281 12.2 5.8 10.7688 5.8 9C5.8 7.24063 7.21875 5.81406 8.975 5.8ZM0.887497 8.6C0.667185 8.63125 0.512497 8.83594 0.543747 9.05625C0.574997 9.27656 0.779685 9.43125 0.999997 9.4H3.4C3.54375 9.40156 3.67812 9.32656 3.75156 9.20156C3.82344 9.07656 3.82344 8.92344 3.75156 8.79844C3.67812 8.67344 3.54375 8.59844 3.4 8.6H0.999997C0.987497 8.6 0.974997 8.6 0.962497 8.6C0.949997 8.6 0.937497 8.6 0.924997 8.6C0.912497 8.6 0.899997 8.6 0.887497 8.6ZM14.4875 8.6C14.2672 8.63125 14.1125 8.83594 14.1437 9.05625C14.175 9.27656 14.3797 9.43125 14.6 9.4H17C17.1437 9.40156 17.2781 9.32656 17.3516 9.20156C17.4234 9.07656 17.4234 8.92344 17.3516 8.79844C17.2781 8.67344 17.1437 8.59844 17 8.6H14.6C14.5875 8.6 14.575 8.6 14.5625 8.6C14.55 8.6 14.5375 8.6 14.525 8.6C14.5125 8.6 14.5 8.6 14.4875 8.6ZM5 12.55C4.90937 12.5625 4.825 12.6078 4.7625 12.675L3.0625 14.375C2.94375 14.4719 2.88906 14.6266 2.92343 14.7766C2.95781 14.925 3.075 15.0422 3.22344 15.0766C3.37344 15.1109 3.52812 15.0563 3.625 14.9375L5.325 13.2375C5.44375 13.1234 5.47968 12.9469 5.41562 12.7953C5.35312 12.6438 5.20156 12.5469 5.0375 12.55C5.025 12.55 5.0125 12.55 5 12.55ZM12.875 12.55C12.725 12.5766 12.6047 12.6859 12.5625 12.8313C12.5203 12.9781 12.5641 13.1344 12.675 13.2375L14.375 14.9375C14.4719 15.0563 14.6266 15.1109 14.7766 15.0766C14.925 15.0422 15.0422 14.925 15.0766 14.7766C15.1109 14.6266 15.0562 14.4719 14.9375 14.375L13.2375 12.675C13.1625 12.5953 13.0594 12.5516 12.95 12.55C12.9375 12.55 12.925 12.55 12.9125 12.55C12.9 12.55 12.8875 12.55 12.875 12.55ZM8.9625 14.1875C8.94531 14.1906 8.92812 14.1953 8.9125 14.2C8.72656 14.2422 8.59531 14.4094 8.6 14.6V17C8.59844 17.1438 8.67344 17.2781 8.79844 17.3516C8.92344 17.4234 9.07656 17.4234 9.20156 17.3516C9.32656 17.2781 9.40156 17.1438 9.4 17V14.6C9.40469 14.4844 9.35781 14.3734 9.275 14.2953C9.19062 14.2156 9.07656 14.1766 8.9625 14.1875Z" fill="#6B707A"/>
</svg>
