<svg width="20" height="20" viewBox="0 0 20 20" fill="none" xmlns="http://www.w3.org/2000/svg">
<path d="M1.46332 0.445021C7.15082 0.109187 12.8925 0.0766875 18.5692 0.455854C18.8075 0.694188 19.3058 1.18169 19.5442 1.42002C19.9125 7.10752 19.9017 12.8492 19.555 18.5367C19.3058 18.7859 18.8075 19.295 18.5692 19.555C12.8925 19.9017 7.15082 19.9017 1.47416 19.555C1.22499 19.3167 0.70499 18.8184 0.44499 18.58C0.0983232 12.8709 0.0874898 7.10752 0.455823 1.40919C0.70499 1.17085 1.21416 0.683354 1.46332 0.445021ZM2.41666 2.41669C2.41666 7.47585 2.41666 12.5242 2.41666 17.5834C7.47582 17.5834 12.5242 17.5834 17.5833 17.5834C17.5833 12.5242 17.5833 7.47585 17.5833 2.41669C12.5242 2.41669 7.47582 2.41669 2.41666 2.41669Z" fill="#4C51B9"/>
</svg>
