<?xml version="1.0" encoding="UTF-8" standalone="no"?>
<!DOCTYPE svg PUBLIC "-//W3C//DTD SVG 1.1//EN" "http://www.w3.org/Graphics/SVG/1.1/DTD/svg11.dtd">
<svg width="100%" height="100%" viewBox="0 0 20 20" version="1.1" xmlns="http://www.w3.org/2000/svg" xmlns:xlink="http://www.w3.org/1999/xlink" xml:space="preserve" xmlns:serif="http://www.serif.com/" style="fill-rule:evenodd;clip-rule:evenodd;stroke-linejoin:round;stroke-miterlimit:2;">
    <g transform="matrix(1,0,0,1,-1209.18,-357.162)">
        <g>
            <g transform="matrix(1,0,0,1,1219.18,367.162)">
                <g transform="matrix(1,0,0,1,-10,-10)">
                    <path d="M1.463,0.445C7.151,0.109 12.893,0.077 18.569,0.456C18.808,0.694 19.306,1.182 19.544,1.42C19.913,7.108 19.902,12.849 19.555,18.537C19.306,18.786 18.808,19.295 18.569,19.555C12.893,19.902 7.151,19.902 1.474,19.555C1.225,19.317 0.705,18.818 0.445,18.58C0.098,12.871 0.087,7.108 0.456,1.409C0.705,1.171 1.214,0.683 1.463,0.445ZM2.417,2.417L2.417,17.583L17.583,17.583L17.583,2.417L2.417,2.417Z" style="fill:rgb(76,81,185);fill-rule:nonzero;"/>
                </g>
            </g>
            <path d="M1225.91,361.147C1226.15,360.901 1225.77,360.285 1225.3,360.641C1224.9,360.946 1224.44,361.661 1224.02,362.106C1223.59,362.551 1218.3,368.551 1218.3,368.551L1217.87,369.066C1217.87,369.053 1217.61,369.573 1216.62,368.537C1215.67,367.539 1214.36,366.741 1213.89,366.56C1213.19,366.292 1211.99,366.987 1212.8,368.697C1213.45,370.083 1215.45,372.47 1216.43,373.173C1217.35,373.827 1218.32,373.327 1219.26,371.755C1220.16,370.251 1225.9,361.29 1225.91,361.147Z" style="fill:rgb(76,81,185);"/>
        </g>
    </g>
</svg>
