<svg width="100%" height="100%" viewBox="0 0 27 28" version="1.1" xmlns="http://www.w3.org/2000/svg" xmlnslink="http://www.w3.org/1999/xlink" xmlSpace="preserve" xmlnsSerif="http://www.serif.com/" style="fill-rule:evenodd;clip-rule:evenodd;" >
    <g transform="matrix(1,0,0,1,-679.239,-1264.87)" style="filter: invert(48%) sepia(8%) saturate(578%) hue-rotate(184deg) brightness(87%) contrast(85%);">
        <g>
            <g transform="matrix(1,0,0,1,692.739,1281.2)">
                <g transform="matrix(1,0,0,1,-13.5,-5)">
                    <clipPath id="_clip1">
                        <rect x="0" y="0" width="27" height="10"/>
                    </clipPath>
                    <g clip-path="url(#_clip1)">
                        <g opacity="0.85">
                            <path d="M0,1.888C1.185,0.943 2.628,0.37 4.147,0.268C3.427,0.979 2.55,1.461 1.675,1.941C1.381,2.102 1.088,2.263 0.802,2.433C1.201,2.904 1.766,3.162 2.32,3.415C2.445,3.473 2.57,3.529 2.692,3.588C5.108,4.632 7.505,5.713 9.902,6.794C11.101,7.334 12.299,7.875 13.5,8.411C15.158,7.632 16.838,6.898 18.517,6.163C21.126,5.022 23.735,3.88 26.266,2.576C25.856,2.288 25.425,2.03 24.994,1.773C24.245,1.325 23.495,0.876 22.857,0.268C24.363,0.361 25.739,1.002 27,1.787L27,3.095C25.13,4.302 23.082,5.17 21.033,6.037C19.796,6.562 18.558,7.086 17.36,7.685C16.955,7.839 16.541,8.045 16.121,8.254C14.764,8.93 13.344,9.637 11.939,8.731C10.424,7.99 8.873,7.318 7.323,6.645C4.831,5.565 2.34,4.485 0,3.12L0,1.888Z" style="fill:rgb(75,80,190);fill-rule:nonzero;"/>
                            <path d="M0,1.888C1.185,0.943 2.628,0.37 4.147,0.268C3.427,0.979 2.55,1.461 1.675,1.941C1.381,2.102 1.088,2.263 0.802,2.433C1.201,2.904 1.766,3.162 2.32,3.415C2.445,3.473 2.57,3.529 2.692,3.588C5.108,4.632 7.505,5.713 9.902,6.794C11.101,7.334 12.299,7.875 13.5,8.411C15.158,7.632 16.838,6.898 18.517,6.163C21.126,5.022 23.735,3.88 26.266,2.576C25.856,2.288 25.425,2.03 24.994,1.773C24.245,1.325 23.495,0.876 22.857,0.268C24.363,0.361 25.739,1.002 27,1.787L27,3.095C25.13,4.302 23.082,5.17 21.033,6.037C19.796,6.562 18.558,7.086 17.36,7.685C16.955,7.839 16.541,8.045 16.121,8.254C14.764,8.93 13.344,9.637 11.939,8.731C10.424,7.99 8.873,7.318 7.323,6.645C4.831,5.565 2.34,4.485 0,3.12L0,1.888Z" style="fill:none;fill-rule:nonzero;stroke:rgb(60,63,170);stroke-width:1px;"/>
                        </g>
                    </g>
                </g>
            </g>
            <g transform="matrix(1,0,0,1,692.739,1287.61)">
                <g transform="matrix(1,0,0,1,-13.5,-5)">
                    <clipPath id="_clip2">
                        <rect x="0" y="0" width="27" height="10"/>
                    </clipPath>
                    <g clip-path="url(#_clip2)">
                        <g opacity="0.85">
                            <path d="M0,1.951C1.185,1.006 2.628,0.436 4.143,0.331C3.387,1.07 2.468,1.576 1.55,2.08C1.279,2.229 1.009,2.378 0.743,2.533C1.782,3.29 2.961,3.787 4.14,4.284C4.545,4.455 4.95,4.626 5.349,4.807C5.515,4.881 5.68,4.955 5.846,5.029C8.398,6.17 10.953,7.312 13.5,8.477C15.034,7.768 16.581,7.088 18.13,6.408C20.874,5.203 23.618,3.998 26.283,2.63C25.924,2.395 25.555,2.175 25.187,1.956C24.371,1.47 23.557,0.986 22.857,0.335C24.363,0.419 25.739,1.065 27,1.85L27,3.157C25.221,4.326 23.265,5.156 21.307,5.986C20.192,6.46 19.076,6.933 17.993,7.469C17.529,7.663 17.073,7.881 16.616,8.099C15.606,8.581 14.595,9.063 13.5,9.296C11.743,8.769 10.081,7.979 8.419,7.189C7.367,6.689 6.315,6.189 5.24,5.756C4.771,5.54 4.296,5.336 3.821,5.132C2.503,4.565 1.184,3.998 0,3.183L0,1.951Z" style="fill:rgb(75,80,190);fill-rule:nonzero;"/>
                            <path d="M0,1.951C1.185,1.006 2.628,0.436 4.143,0.331C3.387,1.07 2.468,1.576 1.55,2.08C1.279,2.229 1.009,2.378 0.743,2.533C1.782,3.29 2.961,3.787 4.14,4.284C4.545,4.455 4.95,4.626 5.349,4.807C5.515,4.881 5.68,4.955 5.846,5.029C8.398,6.17 10.953,7.312 13.5,8.477C15.034,7.768 16.581,7.088 18.13,6.408C20.874,5.203 23.618,3.998 26.283,2.63C25.924,2.395 25.555,2.175 25.187,1.956C24.371,1.47 23.557,0.986 22.857,0.335C24.363,0.419 25.739,1.065 27,1.85L27,3.157C25.221,4.326 23.265,5.156 21.307,5.986C20.192,6.46 19.076,6.933 17.993,7.469C17.529,7.663 17.073,7.881 16.616,8.099C15.606,8.581 14.595,9.063 13.5,9.296C11.743,8.769 10.081,7.979 8.419,7.189C7.367,6.689 6.315,6.189 5.24,5.756C4.771,5.54 4.296,5.336 3.821,5.132C2.503,4.565 1.184,3.998 0,3.183L0,1.951Z" style="fill:none;fill-rule:nonzero;stroke:rgb(60,63,170);stroke-width:1px;"/>
                        </g>
                    </g>
                </g>
            </g>
            <g transform="matrix(1,0,0,1,692.739,1272.37)">
                <g transform="matrix(1,0,0,1,-13.5,-7.5)">
                    <clipPath id="_clip3">
                        <rect x="0" y="0" width="27" height="15"/>
                    </clipPath>
                    <g clip-path="url(#_clip3)">
                        <g opacity="0.85">
                            <path d="M12.226,1.097C13.346,0.384 14.51,0.928 15.594,1.434C15.812,1.536 16.027,1.637 16.238,1.725C17.652,2.409 19.093,3.039 20.533,3.669C22.719,4.624 24.905,5.58 27,6.725L27,8.032C25.142,9.238 23.104,10.1 21.064,10.962C19.821,11.488 18.576,12.014 17.373,12.618C16.966,12.773 16.55,12.98 16.129,13.189C14.762,13.868 13.334,14.578 11.918,13.656C10.405,12.915 8.855,12.244 7.306,11.573C4.821,10.496 2.336,9.419 0,8.058L0,6.817C2.418,5.423 4.984,4.312 7.549,3.201C9.119,2.521 10.69,1.842 12.226,1.097ZM0.844,7.273C0.852,7.317 0.866,7.383 0.88,7.448C0.893,7.513 0.907,7.579 0.915,7.623C3.43,8.864 5.997,9.999 8.564,11.135C10.214,11.865 11.864,12.595 13.5,13.352C15.203,12.556 16.925,11.799 18.648,11.042C21.158,9.939 23.669,8.837 26.118,7.61L26.118,7.265C23.452,5.937 20.722,4.733 17.992,3.53C16.49,2.868 14.988,2.206 13.496,1.523C11.647,2.394 9.777,3.219 7.906,4.044C5.537,5.089 3.168,6.134 0.844,7.273Z" style="fill:rgb(75,80,190);fill-rule:nonzero;"/>
                            <path d="M12.226,1.097C13.346,0.384 14.51,0.928 15.594,1.434C15.812,1.536 16.027,1.637 16.238,1.725C17.652,2.409 19.093,3.039 20.533,3.669C22.719,4.624 24.905,5.58 27,6.725L27,8.032C25.142,9.238 23.104,10.1 21.064,10.962C19.821,11.488 18.576,12.014 17.373,12.618C16.966,12.773 16.55,12.98 16.129,13.189C14.762,13.868 13.334,14.578 11.918,13.656C10.405,12.915 8.855,12.244 7.306,11.573C4.821,10.496 2.336,9.419 0,8.058L0,6.817C2.418,5.423 4.984,4.312 7.549,3.201C9.119,2.521 10.69,1.842 12.226,1.097ZM0.844,7.273C0.852,7.317 0.866,7.383 0.88,7.448C0.893,7.513 0.907,7.579 0.915,7.623C3.43,8.864 5.997,9.999 8.564,11.135C10.214,11.865 11.864,12.595 13.5,13.352C15.203,12.556 16.925,11.799 18.648,11.042C21.158,9.939 23.669,8.837 26.118,7.61L26.118,7.265C23.452,5.937 20.722,4.733 17.992,3.53C16.49,2.868 14.988,2.206 13.496,1.523C11.647,2.394 9.777,3.219 7.906,4.044C5.537,5.089 3.168,6.134 0.844,7.273Z" style="fill:none;fill-rule:nonzero;stroke:rgb(60,63,170);stroke-width:1px;"/>
                        </g>
                    </g>
                </g>
            </g>
        </g>
    </g>
</svg>
